<svg id="visual" viewBox="0 0 900 450" width="900" height="450" xmlns="http://www.w3.org/2000/svg" xmlns:xlink="http://www.w3.org/1999/xlink" version="1.1"><path d="M0 42L25 42.7C50 43.3 100 44.7 150 45.3C200 46 250 46 300 43.8C350 41.7 400 37.3 450 33.7C500 30 550 27 600 29.2C650 31.3 700 38.7 750 37.8C800 37 850 28 875 23.5L900 19L900 0L875 0C850 0 800 0 750 0C700 0 650 0 600 0C550 0 500 0 450 0C400 0 350 0 300 0C250 0 200 0 150 0C100 0 50 0 25 0L0 0Z" fill="#7cd9f3"></path><path d="M0 123L25 120C50 117 100 111 150 105C200 99 250 93 300 89.2C350 85.3 400 83.7 450 80.7C500 77.7 550 73.3 600 73.3C650 73.3 700 77.7 750 79.8C800 82 850 82 875 82L900 82L900 17L875 21.5C850 26 800 35 750 35.8C700 36.7 650 29.3 600 27.2C550 25 500 28 450 31.7C400 35.3 350 39.7 300 41.8C250 44 200 44 150 43.3C100 42.7 50 41.3 25 40.7L0 40Z" fill="#93def5"></path><path d="M0 199L25 208.8C50 218.7 100 238.3 150 243.7C200 249 250 240 300 226.5C350 213 400 195 450 186C500 177 550 177 600 172.5C650 168 700 159 750 157.5C800 156 850 162 875 165L900 168L900 80L875 80C850 80 800 80 750 77.8C700 75.7 650 71.3 600 71.3C550 71.3 500 75.7 450 78.7C400 81.7 350 83.3 300 87.2C250 91 200 97 150 103C100 109 50 115 25 118L0 121Z" fill="#a7e4f6"></path><path d="M0 244L25 250C50 256 100 268 150 273.3C200 278.7 250 277.3 300 266.8C350 256.3 400 236.7 450 226.2C500 215.7 550 214.3 600 209.8C650 205.3 700 197.7 750 197.7C800 197.7 850 205.3 875 209.2L900 213L900 166L875 163C850 160 800 154 750 155.5C700 157 650 166 600 170.5C550 175 500 175 450 184C400 193 350 211 300 224.5C250 238 200 247 150 241.7C100 236.3 50 216.7 25 206.8L0 197Z" fill="#bae9f8"></path><path d="M0 343L25 346C50 349 100 355 150 353.5C200 352 250 343 300 336.3C350 329.7 400 325.3 450 329.8C500 334.3 550 347.7 600 347.7C650 347.7 700 334.3 750 327.7C800 321 850 321 875 321L900 321L900 211L875 207.2C850 203.3 800 195.7 750 195.7C700 195.7 650 203.3 600 207.8C550 212.3 500 213.7 450 224.2C400 234.7 350 254.3 300 264.8C250 275.3 200 276.7 150 271.3C100 266 50 254 25 248L0 242Z" fill="#cceffa"></path><path d="M0 393L25 392.2C50 391.3 100 389.7 150 386.7C200 383.7 250 379.3 300 373.3C350 367.3 400 359.7 450 365.7C500 371.7 550 391.3 600 392.8C650 394.3 700 377.7 750 368.7C800 359.7 850 358.3 875 357.7L900 357L900 319L875 319C850 319 800 319 750 325.7C700 332.3 650 345.7 600 345.7C550 345.7 500 332.3 450 327.8C400 323.3 350 327.7 300 334.3C250 341 200 350 150 351.5C100 353 50 347 25 344L0 341Z" fill="#ddf4fc"></path><path d="M0 420L25 419.2C50 418.3 100 416.7 150 412.8C200 409 250 403 300 396.3C350 389.7 400 382.3 450 386.8C500 391.3 550 407.7 600 409.2C650 410.7 700 397.3 750 392.8C800 388.3 850 392.7 875 394.8L900 397L900 355L875 355.7C850 356.3 800 357.7 750 366.7C700 375.7 650 392.3 600 390.8C550 389.3 500 369.7 450 363.7C400 357.7 350 365.3 300 371.3C250 377.3 200 381.7 150 384.7C100 387.7 50 389.3 25 390.2L0 391Z" fill="#eefafd"></path><path d="M0 451L25 451C50 451 100 451 150 451C200 451 250 451 300 451C350 451 400 451 450 451C500 451 550 451 600 451C650 451 700 451 750 451C800 451 850 451 875 451L900 451L900 395L875 392.8C850 390.7 800 386.3 750 390.8C700 395.3 650 408.7 600 407.2C550 405.7 500 389.3 450 384.8C400 380.3 350 387.7 300 394.3C250 401 200 407 150 410.8C100 414.7 50 416.3 25 417.2L0 418Z" fill="#ffffff"></path></svg>